<svg width="140" height="24" viewBox="0 0 140 24" fill="none" xmlns="http://www.w3.org/2000/svg">
<path d="M9.6 12.152L6.864 20H4.776L0.36 7.4L2.4 7.208L6.12 18.128L8.88 10.232L7.896 7.4L9.816 7.208L13.44 18.128C14.032 16.32 14.616 14.52 15.192 12.728C15.784 10.936 16.36 9.128 16.92 7.304H18.864L14.424 20H12.36L9.6 12.152ZM21.0188 7.448L23.0588 7.16V20H21.0188V7.448ZM21.0188 2.744L23.0588 2.432V4.712H21.0188V2.744ZM26.5238 5.048L28.5878 4.136V7.808L33.6278 7.52C33.5798 7.792 33.5398 8.064 33.5078 8.336C33.4758 8.608 33.4438 8.888 33.4118 9.176H28.5878V15.536C28.5878 15.952 28.6358 16.352 28.7318 16.736C28.8438 17.104 29.0118 17.44 29.2358 17.744C29.4598 18.032 29.7478 18.264 30.0998 18.44C30.4518 18.616 30.8838 18.704 31.3958 18.704C31.7318 18.704 32.0758 18.672 32.4278 18.608C32.7958 18.528 33.1798 18.432 33.5798 18.32L33.3398 19.832C32.9398 19.96 32.5238 20.064 32.0918 20.144C31.6598 20.24 31.2358 20.288 30.8198 20.288C27.9558 20.288 26.5238 18.784 26.5238 15.776V5.048ZM44.5661 12.2C44.5661 10.936 44.3181 10.016 43.8221 9.44C43.3261 8.848 42.5261 8.552 41.4221 8.552C40.8141 8.552 40.2141 8.624 39.6221 8.768C39.0301 8.896 38.4621 9.12 37.9181 9.44V20H35.8781V1.448C36.2141 1.384 36.5501 1.336 36.8861 1.304C37.2221 1.256 37.5661 1.192 37.9181 1.112V9.176L38.4461 7.76C39.0221 7.488 39.6301 7.288 40.2701 7.16C40.9261 7.032 41.5821 6.968 42.2381 6.968C42.9261 6.968 43.5421 7.048 44.0861 7.208C44.6301 7.352 45.0941 7.592 45.4781 7.928C45.8621 8.264 46.1501 8.712 46.3421 9.272C46.5501 9.816 46.6541 10.488 46.6541 11.288V20H44.5661V12.2ZM57.999 9.896V0.343998H61.767V3.104H69.327V0.343998H73.095V9.896H57.999ZM75.999 11.648V14.168H68.247V17.168L64.239 18.104V14.168H55.071V11.648H75.999ZM73.983 22.352H57.879V15.632H61.887V19.592H73.983V22.352ZM69.327 7.376V4.352L68.127 5.624H61.767V7.376H69.327ZM80.3595 18.392C80.3595 16.888 80.9915 15.728 82.2555 14.912C83.5355 14.096 85.5435 13.688 88.2795 13.688C91.0155 13.688 93.0155 14.096 94.2795 14.912C95.5595 15.728 96.1995 16.888 96.1995 18.392C96.1995 19.912 95.5595 21.072 94.2795 21.872C93.0155 22.688 91.0155 23.096 88.2795 23.096C85.5435 23.096 83.5355 22.688 82.2555 21.872C80.9915 21.072 80.3595 19.912 80.3595 18.392ZM78.1515 1.256H88.9515V3.944H82.0635V9.536L90.5355 9.128V11.912L78.1515 12.632V1.256ZM99.0315 8H95.7195V12.488L91.7115 13.424V0.0559993H95.7195V5.24H99.0315V8ZM84.3195 18.392C84.3195 19.016 84.6075 19.512 85.1835 19.88C85.7755 20.232 86.8075 20.408 88.2795 20.408C89.7675 20.408 90.7995 20.232 91.3755 19.88C91.9515 19.512 92.2395 19.016 92.2395 18.392C92.2395 17.768 91.9515 17.28 91.3755 16.928C90.7995 16.576 89.7675 16.4 88.2795 16.4C86.8075 16.4 85.7755 16.576 85.1835 16.928C84.6075 17.28 84.3195 17.768 84.3195 18.392ZM111.188 1.88H116.516L122.228 19.88C121.46 19.944 120.692 20.008 119.924 20.072C119.172 20.152 118.412 20.24 117.644 20.336L116.348 15.656H110.444L109.22 20H105.164L111.188 1.88ZM110.66 15.008L112.388 12.92H115.604L113.468 5.264L110.66 15.008ZM124.17 6.392L126.81 4.928H122.682C122.746 4.432 122.818 3.928 122.898 3.416C122.994 2.904 123.082 2.392 123.162 1.88H132.018C133.01 1.88 133.906 2.016 134.706 2.288C135.522 2.56 136.21 2.936 136.77 3.416C137.346 3.896 137.786 4.472 138.09 5.144C138.394 5.8 138.546 6.52 138.546 7.304C138.546 7.88 138.426 8.432 138.186 8.96C137.962 9.472 137.634 9.936 137.202 10.352C136.786 10.768 136.266 11.128 135.642 11.432C135.034 11.72 134.346 11.936 133.578 12.08L139.122 19.808L134.322 20.264L129.042 12.488H128.442V20H124.17V6.392ZM128.442 4.928V10.136H130.65C131.674 10.136 132.442 9.888 132.954 9.392C133.466 8.896 133.722 8.264 133.722 7.496C133.722 6.776 133.482 6.168 133.002 5.672C132.522 5.176 131.778 4.928 130.77 4.928H128.442Z" fill="#FF7676"/>
</svg>
