<svg width="323" height="65" viewBox="0 0 323 65" fill="none" xmlns="http://www.w3.org/2000/svg">
<path d="M227.76 29.689H224.562V19.229H227.76C228.477 19.1721 229.199 19.2651 229.879 19.5023C230.559 19.7394 231.182 20.1156 231.71 20.607C232.24 21.0986 232.662 21.6946 232.949 22.3581C233.238 23.0214 233.387 23.7377 233.387 24.4618C233.387 25.1859 233.238 25.9021 232.949 26.5655C232.662 27.2289 232.24 27.8251 231.71 28.3165C231.182 28.8081 230.559 29.1841 229.879 29.4212C229.199 29.6584 228.477 29.7514 227.76 29.6945M227.481 20.5795H226.134V28.348H227.481C229.829 28.348 231.769 27.1289 231.769 24.4618C231.769 21.7947 229.829 20.5795 227.481 20.5795Z" fill="black"/>
<path d="M235.918 29.6899V19.2286H241.52V20.5967H237.493V23.757H240.87V25.1115H237.493V28.3259H242.091V29.6914L235.918 29.6899Z" fill="black"/>
<path d="M247.449 25.0991H245.882V29.6897H244.32V19.2298H247.449C247.849 19.201 248.251 19.2556 248.631 19.3901C249.01 19.5248 249.357 19.7364 249.651 20.012C249.945 20.2876 250.18 20.6212 250.339 20.9919C250.501 21.3627 250.583 21.7628 250.583 22.1671C250.583 22.5714 250.501 22.9715 250.339 23.3423C250.18 23.713 249.945 24.0466 249.651 24.3222C249.357 24.5978 249.01 24.8094 248.631 24.9441C248.251 25.0786 247.849 25.1332 247.449 25.1045M247.169 20.5801H245.882V23.758H247.169C247.394 23.7859 247.621 23.7658 247.836 23.6987C248.051 23.6316 248.251 23.5193 248.419 23.369C248.589 23.2188 248.724 23.034 248.816 22.8272C248.909 22.6203 248.957 22.3961 248.957 22.1691C248.957 21.9422 248.909 21.718 248.816 21.5111C248.724 21.3042 248.589 21.1195 248.419 20.9693C248.251 20.819 248.051 20.7067 247.836 20.6396C247.621 20.5725 247.394 20.5522 247.169 20.5801Z" fill="black"/>
<path d="M258.707 29.6913L257.584 26.9821H253.547L252.421 29.6913H250.874L255.307 19.0811H255.877L260.307 29.6913H258.707ZM256.015 23.165C255.847 22.7454 255.7 22.3172 255.577 21.8822H255.54C255.427 22.3205 255.281 22.7495 255.102 23.165L254.073 25.7224H257.045L256.015 23.165Z" fill="black"/>
<path d="M268.828 29.6876L265.555 25.097H264.074V29.6876H262.514V19.2276H265.808C266.207 19.2034 266.608 19.2614 266.984 19.3979C267.36 19.5344 267.704 19.7465 267.997 20.0215C268.289 20.2962 268.523 20.6281 268.685 20.9968C268.844 21.3653 268.928 21.7631 268.932 22.1656C268.946 22.7495 268.778 23.3231 268.452 23.8059C268.126 24.2885 267.656 24.6558 267.112 24.8558L270.665 29.693L268.828 29.6876ZM265.537 20.5727H264.079V23.7505H265.537C265.761 23.7785 265.988 23.7581 266.204 23.6912C266.419 23.6241 266.617 23.5116 266.787 23.3615C266.955 23.2112 267.091 23.0266 267.184 22.8197C267.276 22.6128 267.325 22.3884 267.325 22.1616C267.325 21.9347 267.276 21.7103 267.184 21.5035C267.091 21.2966 266.955 21.112 266.787 20.9617C266.617 20.8115 266.419 20.6991 266.204 20.632C265.988 20.565 265.761 20.5447 265.537 20.5727Z" fill="black"/>
<path d="M275.411 20.5914V29.6899H273.824V20.5914H270.485V19.2286H278.753V20.5967L275.411 20.5914Z" fill="black"/>
<path d="M290.945 29.6876L290.52 24.9589C290.456 24.2531 290.386 23.3524 290.359 22.5857H290.33C289.999 23.3227 289.493 24.3371 289.151 25.0076L286.743 29.7663H286.154L283.71 25.0076C283.35 24.3181 282.903 23.3821 282.549 22.6114H282.508C282.479 23.4161 282.4 24.3384 282.355 24.9589L281.95 29.6876H280.548L281.443 19.2223H282.418L285.197 24.608C285.619 25.4209 286.155 26.4896 286.497 27.2914H286.531C286.853 26.4896 287.357 25.4777 287.798 24.608L290.537 19.2223H291.52L292.45 29.6876H290.945Z" fill="black"/>
<path d="M295.056 29.6899V19.2286H300.669V20.5967H296.642V23.757H300.015V25.1115H296.642V28.3259H301.239V29.6914L295.056 29.6899Z" fill="black"/>
<path d="M312.299 29.9189L307.425 24.5562C306.64 23.7027 305.745 22.6502 305.025 21.7982L304.993 21.8173C305.025 22.7654 305.025 23.6527 305.025 24.4424V29.6899H303.447V19.2286H304.537L309.001 24.1485C309.604 24.8258 310.55 25.8728 311.19 26.6585L311.219 26.645C311.19 25.8321 311.19 24.934 311.19 24.1782V19.2286H312.769V29.9298L312.299 29.9189Z" fill="black"/>
<path d="M319.654 20.5914V29.6899H318.073V20.5914H314.731V19.2286H323V20.5967L319.654 20.5914Z" fill="black"/>
<path d="M227.064 46.2839C226.119 46.2972 225.191 46.0554 224.372 45.5835L224.012 43.8415C224.913 44.5276 226.011 44.9023 227.142 44.9103C228.3 44.9103 229.065 44.2548 229.065 43.2848C229.065 42.3813 228.513 41.7718 227.259 41.3668C225.399 40.7571 224.419 39.7074 224.419 38.2634C224.427 37.8511 224.522 37.4452 224.698 37.0721C224.873 36.6992 225.123 36.3672 225.435 36.0979C225.745 35.8287 226.108 35.628 226.5 35.5089C226.893 35.3897 227.306 35.355 227.713 35.4066C228.511 35.3847 229.298 35.599 229.978 36.023L229.669 37.3274C229.067 36.9354 228.366 36.7248 227.649 36.7206C227.442 36.6953 227.234 36.7127 227.033 36.7716C226.833 36.8306 226.647 36.9299 226.488 37.0635C226.328 37.1972 226.195 37.3623 226.102 37.5487C226.006 37.7353 225.951 37.9394 225.937 38.1483C225.937 38.8364 226.523 39.3946 227.616 39.7738C229.424 40.3969 230.649 41.3709 230.649 43.1412C230.649 45.0091 229.411 46.2839 227.062 46.2839" fill="black"/>
<path d="M236.712 36.9855V46.0937H235.131V36.9855H231.788V35.6311H240.05V36.9855H236.712Z" fill="black"/>
<path d="M246.59 46.287C245.526 46.2655 244.492 45.9288 243.618 45.3186C242.745 44.7086 242.068 43.8524 241.675 42.8574C241.283 41.8624 241.191 40.773 241.411 39.7255C241.63 38.6782 242.153 37.7195 242.912 36.9697C243.673 36.2199 244.636 35.7124 245.681 35.5109C246.725 35.3093 247.806 35.4224 248.786 35.8364C249.768 36.2503 250.606 36.9465 251.196 37.8376C251.785 38.7286 252.1 39.7751 252.102 40.8456C252.105 41.5699 251.963 42.2875 251.687 42.956C251.409 43.6246 251.002 44.2304 250.488 44.7377C249.973 45.245 249.364 45.6435 248.694 45.9095C248.026 46.1756 247.31 46.304 246.59 46.287ZM246.59 36.7955C245.786 36.7685 244.991 36.984 244.309 37.4145C243.626 37.8449 243.089 38.4707 242.762 39.2114C242.436 39.9519 242.338 40.7738 242.48 41.5712C242.62 42.3686 242.996 43.1052 243.557 43.6866C244.117 44.2681 244.838 44.6675 245.626 44.834C246.414 45.0004 247.233 44.926 247.979 44.6205C248.723 44.315 249.361 43.7923 249.81 43.1195C250.259 42.4466 250.497 41.6542 250.493 40.8442C250.511 40.318 250.424 39.7935 250.235 39.3022C250.046 38.811 249.762 38.363 249.397 37.985C249.033 37.607 248.596 37.3069 248.114 37.1025C247.632 36.8982 247.113 36.7937 246.59 36.7955Z" fill="black"/>
<path d="M260.286 46.099L257.006 41.4934H255.537V46.099H253.977V35.6309H257.276C257.675 35.6083 258.074 35.6675 258.45 35.8046C258.826 35.9418 259.17 36.1543 259.463 36.4291C259.755 36.7039 259.989 37.0354 260.151 37.4036C260.312 37.7718 260.398 38.1692 260.403 38.5717C260.417 39.1554 260.248 39.7287 259.921 40.2108C259.594 40.6928 259.124 41.0591 258.578 41.2578L262.132 46.099H260.286ZM256.992 36.9746H255.54V40.1606H256.992C257.216 40.1885 257.444 40.1682 257.66 40.101C257.877 40.0337 258.075 39.9211 258.245 39.7704C258.415 39.6198 258.55 39.4347 258.642 39.2274C258.736 39.02 258.784 38.7951 258.784 38.5676C258.784 38.3401 258.736 38.1154 258.642 37.908C258.55 37.7005 258.415 37.5154 258.245 37.3648C258.075 37.2141 257.877 37.1015 257.66 37.0343C257.444 36.967 257.216 36.9467 256.992 36.9746Z" fill="black"/>
<path d="M263.838 46.0943V35.6262H269.445V36.9808H265.425V40.1518H268.798V41.5173H265.425V44.729H270.02V46.0836L263.838 46.0943Z" fill="black"/>
<path d="M97.8856 17.9893C87.105 17.9893 80.6377 24.5684 80.6377 32.708C80.6377 40.8218 87.0995 47.3875 97.8856 47.3875C108.672 47.3875 115.135 40.8233 115.135 32.708C115.135 24.5684 108.673 17.9893 97.8856 17.9893ZM97.8856 44.2314C92.724 44.2314 88.7999 39.065 88.7999 32.708C88.7999 26.351 92.724 21.1536 97.8856 21.1536C103.047 21.1536 106.997 26.3348 106.997 32.708C106.997 39.0813 103.062 44.2314 97.8856 44.2314Z" fill="black"/>
<path d="M116.613 22.3375H127.966V46.1778H136.515V22.3375H146.088V19.0715H116.613V22.3375Z" fill="black"/>
<path d="M149.219 22.3375H158.796V46.1778H167.34V22.3375H178.705V19.0715H149.223L149.219 22.3375Z" fill="black"/>
<path d="M63.627 41.3205V19.0731H55.415V42.9379C55.421 43.8006 55.7663 44.6256 56.3753 45.2329C56.9843 45.84 57.8075 46.1799 58.6649 46.1781H79.6782V42.9271H65.252C64.8252 42.9296 64.4146 42.762 64.1102 42.4611C63.8058 42.16 63.632 41.75 63.627 41.3205Z" fill="black"/>
<path d="M183.351 22.308V42.938C183.357 43.8027 183.703 44.6296 184.315 45.2372C184.925 45.845 185.752 46.1838 186.611 46.1796H209.006V42.9692H193.217C193.002 42.9738 192.79 42.9352 192.59 42.8561C192.391 42.7771 192.209 42.659 192.055 42.5085C191.902 42.3582 191.781 42.1786 191.697 41.9802C191.613 41.7818 191.569 41.5688 191.568 41.3531V33.3734H208.753V30.2133H191.568V23.8888C191.569 23.6735 191.615 23.4609 191.699 23.263C191.782 23.0652 191.905 22.886 192.059 22.7358C192.212 22.5857 192.393 22.4674 192.592 22.3879C192.79 22.3085 193.003 22.2693 193.217 22.2727H209.006V19.0733H186.611C186.185 19.0694 185.763 19.15 185.369 19.3105C184.975 19.4712 184.615 19.7085 184.313 20.0091C184.01 20.3097 183.769 20.6674 183.604 21.0619C183.438 21.4565 183.352 21.88 183.351 22.308Z" fill="black"/>
<path d="M21.069 53.7851C19.3002 53.7898 17.5479 53.4417 15.9138 52.7607C14.2796 52.0796 12.7958 51.0793 11.5484 49.8175L3.9368 42.1574C1.41581 39.6151 0 36.1705 0 32.5793C0 28.9879 1.41581 25.5434 3.9368 23.0011L11.5498 15.3423C14.0744 12.8021 17.4985 11.375 21.069 11.375C24.6394 11.375 28.0635 12.8021 30.5881 15.3423L38.201 23.0011C40.7222 25.5435 42.1381 28.9884 42.1381 32.58C42.1381 36.1714 40.7222 39.6162 38.201 42.1587L30.5881 49.8175C29.341 51.0793 27.8575 52.0796 26.2236 52.7607C24.5895 53.4417 22.8376 53.7899 21.069 53.7851ZM20.5641 18.7978C19.9251 18.7837 19.2899 18.9001 18.6969 19.1397C18.1038 19.3796 17.5652 19.7379 17.1137 20.1931C15.2142 22.0894 14.8642 25.4054 14.9046 27.8519C14.9221 28.8839 15.1738 38.0775 18.9769 42.9837C19.5263 43.7093 20.1891 44.3401 20.9398 44.8516C21.8587 45.5084 22.9561 45.865 24.0832 45.8729C24.4794 45.8707 24.8744 45.8326 25.2638 45.7592C25.2825 45.7563 25.3009 45.7522 25.319 45.747C27.5241 45.2337 29.9285 43.1868 31.7514 40.2719C31.8349 40.1388 31.8914 39.9906 31.9176 39.8354C31.9437 39.6804 31.9389 39.5215 31.9034 39.3684C31.8512 39.1371 31.732 38.9267 31.5608 38.7637C31.3896 38.6007 31.1743 38.4923 30.9421 38.4525C30.7097 38.4127 30.471 38.4429 30.2557 38.5396C30.0406 38.6363 29.8588 38.7951 29.7333 38.9958C28.6527 40.9971 26.912 42.5563 24.8114 43.4049C24.5738 43.4484 24.3329 43.4712 24.0913 43.4726C23.4277 43.4683 22.783 43.2492 22.2523 42.8482C21.7179 42.4807 21.2463 42.0283 20.8563 41.5085C18.1637 38.0273 17.344 31.2598 17.286 27.8098C17.239 25.0112 17.7734 22.9104 18.7912 21.8917C19.025 21.658 19.3043 21.475 19.6113 21.3545C19.9184 21.2337 20.2468 21.1778 20.5762 21.19H20.7849C21.1137 21.1778 21.4415 21.2339 21.7479 21.3545C22.0543 21.4752 22.3329 21.658 22.5659 21.8917C23.5837 22.9089 24.1182 25.0071 24.0711 27.8098C24.1203 31.5747 23.152 35.2825 21.2696 38.5366C21.1143 38.8092 21.0717 39.1321 21.1507 39.436C21.2297 39.7399 21.4241 40.0003 21.692 40.1616C21.96 40.3226 22.2801 40.3715 22.5835 40.2977C22.887 40.2238 23.1494 40.0332 23.3145 39.7665C25.3427 36.1231 26.4209 32.0222 26.4485 27.8463C26.4902 25.4001 26.1402 22.0854 24.2394 20.1877C23.7868 19.732 23.2471 19.3734 22.6528 19.1336C22.0586 18.8937 21.4223 18.7777 20.7821 18.7925L20.5641 18.7978ZM15.754 43.1801H15.6908C15.3447 43.1957 15.0184 43.3469 14.7816 43.6012C14.5448 43.8555 14.4161 44.193 14.4231 44.5414C14.4302 44.89 14.5723 45.2218 14.8192 45.4664C15.0661 45.7108 15.3982 45.8484 15.7446 45.8499H15.7998C16.1454 45.8346 16.4714 45.6839 16.7083 45.4303C16.9454 45.1766 17.0744 44.8399 17.0683 44.4919C17.0622 44.1438 16.9212 43.812 16.6755 43.5669C16.4297 43.3218 16.1 43.1831 15.754 43.1801Z" fill="black"/>
</svg>
